# xmcd
#
# Track frame offsets: 
#        150
#        33647
#        55560
#        75145
#        96177
#        122170
#        144345
#        169692
#        192077
#        210870
#        231500
#        256120
#        277127
#        297242
#        315125
#        332077
#
# Disc length: 4700 seconds
#
# Revision: 8
# Processed by: cddbd v1.5.2PL0 Copyright (c) Steve Scherf et al.
# Submitted via: ExactAudioCopy v1.1
#
DISCID=d4125a10
DTITLE=Elisa - Lotus
DYEAR=2003
DGENRE=Pop
TTITLE0=Hallelujah
TTITLE1=Rock Your Soul
TTITLE2=Broken
TTITLE3=Femme Fatale
TTITLE4=Sleeping In Your Hand
TTITLE5=Labyrinth
TTITLE6=Beautiful Night
TTITLE7=Almeno Tu Nell'Universo
TTITLE8=Electricity
TTITLE9=The Marriage
TTITLE10=Yashal
TTITLE11=Stranger
TTITLE12=Luce (Tramonti A Nord Est)
TTITLE13=Gift
TTITLE14=Interlude
TTITLE15=A Prayer
EXTD=
EXTT0=
EXTT1=
EXTT2=
EXTT3=
EXTT4=
EXTT5=
EXTT6=
EXTT7=
EXTT8=
EXTT9=
EXTT10=
EXTT11=
EXTT12=
EXTT13=
EXTT14=
EXTT15=
PLAYORDER=
